HIERARCHY
ROOT hip
{
	OFFSET 0.000000 0.000000 0.000000 
	CHANNELS 6 Xposition Yposition Zposition Zrotation Xrotation Yrotation
	JOINT abdomen
	{
		OFFSET 0.000000 3.402643 0.000000 
		CHANNELS 3 Zrotation Xrotation Yrotation
		JOINT chest
		{
			OFFSET 0.000000 8.438565 -0.680529 
			CHANNELS 3 Zrotation Xrotation Yrotation
			JOINT neck
			{
				OFFSET 0.000000 10.207942 -0.272212 
				CHANNELS 3 Zrotation Xrotation Yrotation
				JOINT head
				{
					OFFSET 0.000000 3.130431 0.000000 
					CHANNELS 3 Zrotation Xrotation Yrotation
					End Site
					{
						OFFSET 0.000000 3.130435 0.000000 
					}
				}
			}
			JOINT lCollar
			{
				OFFSET 3.470700 6.669187 -0.816635 
				CHANNELS 3 Zrotation Xrotation Yrotation
				JOINT lShldr
				{
					OFFSET 3.198488 0.000000 0.000000 
					CHANNELS 3 Zrotation Xrotation Yrotation
					JOINT lForeArm
					{
						OFFSET 10.139888 0.000000 0.000000 
						CHANNELS 3 Zrotation Xrotation Yrotation
						JOINT lHand
						{
							OFFSET 8.370511 0.000000 0.000000 
							CHANNELS 3 Zrotation Xrotation Yrotation
							End Site
							{
								OFFSET 4.083176 0.000000 0.000000 
							}
						}
					}
				}
			}
			JOINT rCollar
			{
				OFFSET -3.470700 6.669187 -0.816635 
				CHANNELS 3 Zrotation Xrotation Yrotation
				JOINT rShldr
				{
					OFFSET -3.198488 0.000000 0.000000 
					CHANNELS 3 Zrotation Xrotation Yrotation
					JOINT rForeArm
					{
						OFFSET -10.139888 0.000000 0.000000 
						CHANNELS 3 Zrotation Xrotation Yrotation
						JOINT rHand
						{
							OFFSET -8.370511 0.000000 0.000000 
							CHANNELS 3 Zrotation Xrotation Yrotation
							End Site
							{
								OFFSET -4.083176 0.000000 0.000000 
							}
						}
					}
				}
			}
		}
	}
	JOINT lThigh
	{
		OFFSET 5.308129 -1.633274 1.361059 
		CHANNELS 3 Zrotation Xrotation Yrotation
		JOINT lShin
		{
			OFFSET -2.041588 -20.007561 0.000000 
			CHANNELS 3 Zrotation Xrotation Yrotation
			JOINT lFoot
			{
				OFFSET 0.000000 -19.190928 -1.224953 
				CHANNELS 3 Zrotation Xrotation Yrotation
				End Site
				{
					OFFSET 0.000000 -2.449906 4.627600 
				}
			}
		}
	}
	JOINT rThigh
	{
		OFFSET -5.308129 -1.633274 1.361059 
		CHANNELS 3 Zrotation Xrotation Yrotation
		JOINT rShin
		{
			OFFSET 2.041588 -20.007561 0.000000 
			CHANNELS 3 Zrotation Xrotation Yrotation
			JOINT rFoot
			{
				OFFSET 0.000000 -19.190928 -1.224953 
				CHANNELS 3 Zrotation Xrotation Yrotation
				End Site
				{
					OFFSET 0.000000 -2.449906 4.627600 
				}
			}
		}
	}
}
MOTION
Frames: 13
Frame Time: 0.033333
1.271617 47.048935 0.394564 -0.000000 -0.000010 -0.000000 -0.019531 0.000000 -0.029297 -0.039063 -0.058593 -0.029337 9.512331 5.210960 -0.871899 -13.531255 -11.954093 -14.308713 -5.687435 -0.268816 2.011532 -33.393089 24.220985 -22.645420 -5.986204 67.706963 -75.382881 5.932204 -0.060074 -3.367898 5.403141 -0.289420 -2.129170 66.522141 16.074999 7.095171 12.217858 13.072635 32.262535 -6.002441 -0.034738 3.336427 1.296575 -12.115767 0.910455 -3.543385 24.674440 -0.513233 1.489315 -13.031901 1.201567 -10.912471 -12.000601 -17.398180 -6.659772 23.153061 2.151307 12.225179 -21.386789 -13.659579 
1.260200 47.234032 0.393664 -0.000000 -0.000010 -0.000000 -0.019531 0.000000 -0.029297 -0.039063 -0.058593 -0.029337 9.309812 5.435697 -0.889678 -13.391994 -7.925920 -11.978018 -5.687435 -0.268816 2.011532 -33.403194 24.221115 -22.623716 -5.986204 67.706963 -75.382881 5.932204 -0.060074 -3.367898 5.393303 -0.290899 -2.138927 60.176575 14.980906 24.497580 11.659098 24.003368 46.012833 -6.002441 -0.034738 3.336427 1.253139 -11.240241 0.811082 -3.471788 22.813791 -0.379040 1.337753 -12.034368 1.103513 -10.833366 -11.089250 -17.298906 -6.049279 21.339855 1.756567 -0.305950 -25.016941 -16.065416 
1.248784 47.419128 0.392764 -0.000000 -0.000010 -0.000000 -0.019531 0.000000 -0.029297 -0.039063 -0.058593 -0.029337 8.664716 5.599829 -0.851945 -13.312440 -3.221777 -9.531421 -5.687435 -0.268816 2.011532 -33.411854 24.224413 -22.602606 -5.986204 67.706963 -75.382881 5.932204 -0.060074 -3.367898 5.383578 -0.290534 -2.138963 54.365295 12.548705 41.625004 5.701604 34.822212 62.075714 -6.002441 -0.034738 3.336427 1.199327 -10.302296 0.764384 -3.245659 20.798376 -0.505803 1.113747 -10.917308 1.044987 -10.729321 -10.160764 -17.194710 -5.428689 19.479174 1.406522 -13.480346 -28.683744 -21.119268 
1.237369 47.604229 0.391864 -0.000000 -0.000010 -0.000000 -0.019531 0.000000 -0.029297 -0.048828 -0.058591 -0.029347 7.832046 5.708325 -0.783849 -13.326360 1.710510 -7.116670 -5.687435 -0.268816 2.011532 -33.419079 24.230865 -22.582088 -5.986204 67.706963 -75.382881 5.932204 -0.060074 -3.367898 5.373403 -0.299922 -2.148718 49.459915 8.997021 58.342209 -7.258790 43.368484 82.704216 -6.002441 -0.034738 3.336427 1.156430 -9.298593 0.656290 -3.130946 18.691498 -0.457227 1.055541 -9.901231 0.995083 -10.639721 -9.071320 -17.099743 -4.723747 17.299929 1.466034 0.013123 -19.291132 -16.921499 
1.121371 47.555462 0.383644 -0.000000 -0.000010 -0.000000 -0.019531 0.000000 -0.029297 -0.048828 -0.068357 -0.029355 7.018001 5.757610 -0.706367 -13.426098 5.662294 -5.088574 -5.687435 -0.268816 2.011532 -33.429173 24.230991 -22.560381 -5.986204 67.706963 -75.382881 5.932204 -0.060074 -3.367898 5.363645 -0.299556 -2.148754 45.738163 4.613893 74.677307 -27.095705 46.681664 108.264572 -6.002441 -0.034738 3.336427 1.326398 -9.593884 0.783471 -3.041703 19.277342 -0.529073 0.821641 -10.097425 0.900179 -10.509218 -9.457511 -17.050758 -4.961812 18.070084 1.034271 11.673663 -12.226741 -17.608303 
1.005372 47.506702 0.375422 -0.000000 -0.000010 -0.000000 -0.019531 0.000000 -0.029297 -0.048828 -0.068357 -0.029355 6.262175 5.756692 -0.630611 -13.533092 8.577209 -3.500780 -5.687435 -0.268816 2.011532 -33.436409 24.237429 -22.539864 -5.986204 67.706963 -75.382881 5.932204 -0.060074 -3.367898 5.353836 -0.300099 -2.158513 45.689594 4.553554 74.720863 -35.595215 43.532482 114.349434 -6.002441 -0.034738 3.336427 1.504888 -9.919160 0.749108 -3.134191 19.957300 -0.460831 0.819397 -10.508927 0.912928 -10.362507 -9.846100 -17.008951 -5.230693 18.811312 1.330886 11.129389 -19.245224 -14.172016 
0.889374 47.457932 0.367201 -0.000000 -0.000010 -0.000000 -0.019531 0.000000 -0.029297 -0.048828 -0.068357 -0.029355 5.554856 5.695955 -0.552093 -13.678198 11.499832 -2.058459 -5.687435 -0.268816 2.011532 -33.446510 24.237556 -22.518156 -5.986204 67.706963 -75.382881 5.932204 -0.060074 -3.367898 5.344043 -0.300646 -2.158545 45.678478 4.485995 74.762466 -43.173462 39.813457 119.408615 -6.002441 -0.034738 3.336427 1.685254 -10.221649 0.850964 -3.224074 20.584534 -0.498225 0.743547 -10.805406 0.920201 -10.228465 -10.236062 -16.968838 -5.428503 19.530376 1.400580 -1.185143 -24.216496 -16.340340 
0.773376 47.409164 0.358980 -0.000000 -0.000010 -0.000000 -0.019531 0.000000 -0.029297 -0.048828 -0.068357 -0.029355 4.906241 5.594781 -0.479482 -13.873085 14.419562 -0.709131 -5.687435 -0.268816 2.011532 -33.449413 24.242342 -22.508186 -5.986204 67.706963 -75.382881 5.932204 -0.060074 -3.367898 5.334284 -0.300273 -2.158584 45.649261 4.423675 74.805725 -49.923916 35.659908 123.517426 -6.002441 -0.034738 3.336427 1.875483 -10.571520 0.822737 -3.381877 21.282112 -0.482715 0.684532 -11.147094 0.963044 -10.082769 -10.569140 -16.927166 -5.658742 20.183502 1.629905 -14.324425 -29.092859 -21.861593 
0.657377 47.360401 0.350759 -0.000000 -0.000010 -0.000000 -0.019531 0.000000 -0.029297 -0.048828 -0.068357 -0.029355 4.316448 5.453328 -0.410984 -14.010299 16.143276 0.277205 -5.687435 -0.268816 2.011532 -33.459518 24.242479 -22.486479 -5.986204 67.706963 -75.382881 5.932204 -0.060074 -3.367898 5.324507 -0.299907 -2.168340 45.619095 4.359286 74.848572 -55.993679 31.166759 126.799126 -6.002441 -0.034738 3.336427 2.057417 -10.821899 0.912667 -3.460538 21.778917 -0.344029 0.706170 -11.423740 0.679436 -9.926305 -10.902373 -16.882826 -5.869960 20.782639 1.580364 -0.124982 -21.199883 -16.963940 
0.541378 47.311630 0.342538 -0.000000 -0.000010 -0.000000 -0.019531 0.000000 -0.029297 -0.048828 -0.078119 -0.039130 3.765952 5.271858 -0.345877 -14.163743 17.875227 1.233791 -5.687435 -0.268816 2.011532 -33.466766 24.248892 -22.465956 -5.986204 67.706963 -75.382881 5.932204 -0.060074 -3.367898 5.314713 -0.300443 -2.168376 45.599155 4.295107 74.891609 -61.510242 26.438990 129.349152 -6.002441 -0.034738 3.336427 2.217182 -11.087523 0.971483 -3.337113 22.337152 -0.462620 0.472124 -11.615527 0.672144 -9.793620 -11.231151 -16.840076 -6.095951 21.446186 1.844667 11.459280 -14.149396 -18.072483 
0.561338 47.331005 0.343834 -0.000000 -0.000010 -0.000000 -0.029297 -0.019533 -0.039073 -0.068359 -0.087891 -0.058699 3.274494 5.060120 -0.288570 -13.856333 18.527140 1.737491 -5.687435 -0.268816 2.011532 -33.475437 24.252163 -22.444830 -5.986204 67.706963 -75.382881 5.932204 -0.060074 -3.367898 5.109463 -0.297870 -2.237166 45.567387 4.223348 74.973335 -61.281002 26.237789 129.119598 -6.002441 -0.034738 3.336427 2.197703 -11.032623 0.953757 -3.322450 22.187368 -0.571586 0.609203 -11.581404 0.838214 -9.811936 -11.125938 -16.798586 -6.002684 21.233555 1.902812 10.844202 -20.739063 -14.628844 
0.581297 47.350380 0.345131 -0.000000 -0.000010 -0.000000 -0.039063 -0.029296 -0.048848 -0.087891 -0.107418 -0.088056 2.822442 4.808633 -0.236311 -13.538889 19.190434 2.181893 -5.687435 -0.268816 2.011532 -33.484104 24.255430 -22.423714 -5.986204 67.706963 -75.382881 5.932204 -0.060074 -3.367898 4.904209 -0.295706 -2.296245 45.534767 4.149765 75.054710 -61.051636 26.029442 128.896271 -6.002441 -0.034738 3.336427 2.155845 -10.872965 0.922743 -3.390092 21.923279 -0.486721 0.702578 -11.560425 0.822850 -9.817098 -11.019043 -16.754091 -5.919607 20.984619 1.560214 -1.332098 -24.982729 -16.622314 
0.601256 47.369759 0.346427 -0.000000 -0.000010 -0.000000 -0.048828 -0.039065 -0.058627 -0.107422 -0.117184 -0.117408 2.409932 4.546769 -0.190745 -13.219931 19.845320 2.586997 -5.687435 -0.268816 2.011532 -33.492783 24.258684 -22.402578 -5.986204 67.706963 -75.382881 5.932204 -0.060074 -3.367898 4.699031 -0.291445 -2.355336 45.503330 4.079049 75.137001 -60.824348 25.833591 128.679092 -6.002441 -0.034738 3.336427 2.127180 -10.802640 0.990270 -3.269877 21.731138 -0.568569 0.581768 -11.422801 0.736887 -9.836647 -10.895696 -16.729877 -5.838437 20.774696 1.719728 -14.677178 -29.256544 -22.256750 
